<?xml version="1.0" encoding="UTF-8" standalone="no"?>
<svg
   id="Layer_1"
   data-name="Layer 1"
   version="1.1"
   viewBox="0 0 627.5 627.5"
   sodipodi:docname="KUID_logo-square.svg"
   inkscape:version="1.2.1 (9c6d41e410, 2022-07-14)"
   width="627.5"
   height="627.5"
   inkscape:export-filename="KUID-transparent-square-noname.png"
   inkscape:export-xdpi="96"
   inkscape:export-ydpi="96"
   xmlns:inkscape="http://www.inkscape.org/namespaces/inkscape"
   xmlns:sodipodi="http://sodipodi.sourceforge.net/DTD/sodipodi-0.dtd"
   xmlns="http://www.w3.org/2000/svg"
   xmlns:svg="http://www.w3.org/2000/svg">
  <sodipodi:namedview
     id="namedview497"
     pagecolor="#ffffff"
     bordercolor="#000000"
     borderopacity="0.25"
     inkscape:showpageshadow="2"
     inkscape:pageopacity="0.0"
     inkscape:pagecheckerboard="0"
     inkscape:deskcolor="#d1d1d1"
     showgrid="false"
     inkscape:zoom="1.1031798"
     inkscape:cx="314.09206"
     inkscape:cy="385.25"
     inkscape:window-width="1920"
     inkscape:window-height="1027"
     inkscape:window-x="-8"
     inkscape:window-y="-8"
     inkscape:window-maximized="1"
     inkscape:current-layer="Layer_1" />
  <defs
     id="defs416">
    <style
       id="style414">
      .cls-1 {
        fill: none;
      }

      .cls-1, .cls-2, .cls-3, .cls-4, .cls-5, .cls-6, .cls-7 {
        stroke-width: 0px;
      }

      .cls-2 {
        fill: #1d1d1b;
      }

      .cls-3 {
        fill: #a0f0be;
      }

      .cls-4 {
        fill: #63e194;
      }

      .cls-5 {
        fill: #089b2a;
      }

      .cls-6 {
        fill: #37cc73;
      }

      .cls-7 {
        fill: #fff;
      }
    </style>
  </defs>
  <g
     id="g582"
     transform="translate(2.55,10)">
    <path
       class="cls-2"
       d="m 311.3,58.1 c 2.9,0 5.7,0.8 8.3,2.3 l 122.1,73.8 c 4.8,2.9 7.7,8.1 7.7,13.7 v 97.3 c 0,5.8 3.1,11.1 8.1,13.9 l 83.4,47.3 c 5,2.8 8.1,8.2 8.1,13.9 v 142.5 c 0,5.7 -3,10.9 -7.9,13.8 L 420.6,547 c -2.5,1.5 -5.3,2.2 -8.1,2.2 -2.8,0 -5.8,-0.8 -8.4,-2.4 L 322,496.2 c -2.6,-1.6 -5.5,-2.4 -8.4,-2.4 -2.9,0 -5.6,0.7 -8.2,2.2 l -85.9,51 c -2.5,1.5 -5.3,2.2 -8.2,2.2 -2.9,0 -5.5,-0.7 -8,-2.2 L 81.6,476.4 c -4.9,-2.9 -8,-8.1 -8,-13.8 V 322.3 c 0,-5.6 2.9,-10.8 7.7,-13.7 l 83.8,-50.9 c 4.8,-2.9 7.7,-8.1 7.7,-13.7 v -96.4 c 0,-5.6 2.9,-10.8 7.7,-13.7 L 303,60.1 c 2.5,-1.5 5.4,-2.3 8.3,-2.3 m 0,-13.7 c -5.5,0 -10.8,1.5 -15.5,4.3 l -122.5,73.8 c -9,5.4 -14.5,15.2 -14.5,25.7 v 96.4 c 0,0.7 -0.4,1.3 -1,1.7 L 74,296.9 c -8.9,5.4 -14.4,15.2 -14.4,25.6 v 140.3 c 0,10.7 5.7,20.6 15,26 l 121.7,70.6 c 4.6,2.6 9.8,4 15,4 5.2,0 10.7,-1.5 15.3,-4.2 l 85.9,-51 c 0.4,-0.2 0.8,-0.3 1,-0.3 0.2,0 0.7,0 1,0.3 l 82.1,50.6 c 4.7,2.9 10.2,4.5 15.7,4.5 5.5,0 10.5,-1.4 15.1,-4.1 l 120.5,-70.4 c 9.2,-5.4 14.9,-15.3 14.9,-25.9 V 320.4 c 0,-10.8 -5.8,-20.8 -15.2,-26.1 L 464.2,247 c -0.6,-0.4 -1,-1 -1,-1.7 V 148 c 0,-10.4 -5.5,-20.3 -14.5,-25.7 L 326.6,48.5 c -4.7,-2.8 -10,-4.3 -15.5,-4.3 v 0 z"
       id="path418" />
    <g
       id="g434">
      <polygon
         class="cls-6"
         points="211.4,391.3 211.4,507.2 311.8,449.3 311.8,333.3 "
         id="polygon430" />
      <path
         class="cls-5"
         d="M 111,333.3 V 440 c 0,5.7 3,11 8,13.9 l 92.4,53.4 V 391.4 L 111,333.4 Z"
         id="path432" />
    </g>
    <polygon
       class="cls-5"
       points="311.8,333.3 311.8,449.3 412.3,507.2 412.3,391.3 "
       id="polygon436" />
    <polygon
       class="cls-5"
       points="211.4,159.4 211.4,275.4 311.8,333.3 311.8,217.4 "
       id="polygon438" />
    <g
       id="g452">
      <rect
         class="cls-3"
         x="409.79999"
         y="382.20001"
         width="36.5"
         height="0"
         transform="rotate(-45,428.01647,382.20977)"
         id="rect440" />
      <polygon
         class="cls-3"
         points="512.7,333.3 412.3,275.4 380.9,293.5 480.7,351.8 "
         id="polygon442" />
      <polygon
         class="cls-4"
         points="412.3,391.3 311.8,333.3 344,314.7 311.8,333.3 "
         id="polygon444" />
      <polygon
         class="cls-4"
         points="344,314.7 311.8,333.3 412.3,391.3 443.8,373.1 "
         id="polygon446" />
      <rect
         class="cls-7"
         x="342.60001"
         y="309.5"
         width="20.799999"
         height="0"
         id="rect448" />
      <polygon
         class="cls-7"
         points="443.8,373.1 480.7,351.8 380.9,293.5 362,304.3 344,314.7 "
         id="polygon450" />
    </g>
    <g
       id="g476">
      <path
         class="cls-4"
         d="M 412.3,159.4 319.9,106 c -5,-2.9 -11,-2.9 -16,0 L 280.2,119.7 380,178 Z"
         id="path454" />
      <g
         id="g460">
        <polygon
           class="cls-1"
           points="266.5,127.6 261.6,130.4 "
           id="polygon456" />
        <polygon
           class="cls-7"
           points="343.1,199.4 360.8,189.1 "
           id="polygon458" />
      </g>
      <g
         id="g470">
        <path
           class="cls-3"
           d="M 412.3,159.4 319.9,106 c -5,-2.9 -11,-2.9 -16,0 L 280.2,119.7 380,178 Z"
           id="path462" />
        <polygon
           class="cls-4"
           points="211.4,159.4 311.8,217.4 343.1,199.4 243.3,141 "
           id="polygon464" />
        <rect
           class="cls-7"
           x="371"
           y="172.89999"
           height="20.700001"
           id="rect466"
           width="0" />
        <polygon
           class="cls-7"
           points="362,188.4 360.8,189.1 "
           id="polygon468" />
      </g>
      <polygon
         class="cls-6"
         points="380,178.1 412.3,159.4 "
         id="polygon472" />
      <rect
         class="cls-6"
         x="371"
         y="172.89999"
         height="20.700001"
         id="rect474"
         width="0" />
    </g>
    <polygon
       class="cls-7"
       points="280.2,119.8 266.5,127.6 261.6,130.4 243.3,141 343.1,199.4 360.8,189.1 362,188.4 380,178.1 "
       id="polygon478" />
    <g
       id="g490">
      <polygon
         class="cls-4"
         points="211.4,391.3 242.9,373.1 143.1,314.8 143.6,314.5 111,333.3 "
         id="polygon480" />
      <polygon
         class="cls-3"
         points="279.8,351.8 280.3,351.6 311.8,333.3 284.9,317.8 211.4,275.4 201.5,281.1 180.5,293.2 161.2,304.3 180,293.5 "
         id="polygon482" />
      <polygon
         class="cls-3"
         points="261.6,362.3 266.4,359.5 "
         id="polygon484" />
      <polygon
         class="cls-7"
         points="266.4,359.5 279.8,351.8 "
         id="polygon486" />
      <polygon
         class="cls-7"
         points="180,293.5 161.2,304.3 143.6,314.5 143.1,314.8 242.9,373.1 261.6,362.3 266.4,359.5 279.8,351.8 "
         id="polygon488" />
    </g>
    <polygon
       class="cls-6"
       points="362,188.4 343.1,199.4 311.8,217.4 311.8,333.3 412.3,275.4 412.3,159.4 380,178.1 "
       id="polygon492" />
    <path
       class="cls-6"
       d="m 412.3,391.3 v 115.9 l 92.4,-53.4 c 5,-2.9 8,-8.1 8,-13.9 V 333.2 l -100.4,58 z"
       id="path494" />
  </g>
</svg>
