<?xml version="1.0" encoding="UTF-8"?>
<svg id="Layer_1" data-name="Layer 1" xmlns="http://www.w3.org/2000/svg" version="1.1" viewBox="0 0 627.5 770.5">
  <defs>
    <style>
      .cls-1 {
        fill: none;
      }

      .cls-1, .cls-2, .cls-3, .cls-4, .cls-5, .cls-6, .cls-7 {
        stroke-width: 0px;
      }

      .cls-2 {
        fill: #1d1d1b;
      }

      .cls-3 {
        fill: #a0f0be;
      }

      .cls-4 {
        fill: #63e194;
      }

      .cls-5 {
        fill: #089b2a;
      }

      .cls-6 {
        fill: #37cc73;
      }

      .cls-7 {
        fill: #fff;
      }
    </style>
  </defs>
  <path class="cls-2" d="M311.3,58.1c2.9,0,5.7.8,8.3,2.3l122.1,73.8c4.8,2.9,7.7,8.1,7.7,13.7v97.3c0,5.8,3.1,11.1,8.1,13.9l83.4,47.3c5,2.8,8.1,8.2,8.1,13.9v142.5c0,5.7-3,10.9-7.9,13.8l-120.5,70.4c-2.5,1.5-5.3,2.2-8.1,2.2s-5.8-.8-8.4-2.4l-82.1-50.6c-2.6-1.6-5.5-2.4-8.4-2.4s-5.6.7-8.2,2.2l-85.9,51c-2.5,1.5-5.3,2.2-8.2,2.2s-5.5-.7-8-2.2l-121.7-70.6c-4.9-2.9-8-8.1-8-13.8v-140.3c0-5.6,2.9-10.8,7.7-13.7l83.8-50.9c4.8-2.9,7.7-8.1,7.7-13.7v-96.4c0-5.6,2.9-10.8,7.7-13.7l122.5-73.8c2.5-1.5,5.4-2.3,8.3-2.3M311.3,44.1c-5.5,0-10.8,1.5-15.5,4.3l-122.5,73.8c-9,5.4-14.5,15.2-14.5,25.7v96.4c0,.7-.4,1.3-1,1.7l-83.8,50.9c-8.9,5.4-14.4,15.2-14.4,25.6v140.3c0,10.7,5.7,20.6,15,26l121.7,70.6c4.6,2.6,9.8,4,15,4s10.7-1.5,15.3-4.2l85.9-51c.4-.2.8-.3,1-.3s.7,0,1,.3l82.1,50.6c4.7,2.9,10.2,4.5,15.7,4.5s10.5-1.4,15.1-4.1l120.5-70.4c9.2-5.4,14.9-15.3,14.9-25.9v-142.5c0-10.8-5.8-20.8-15.2-26.1l-83.4-47.3c-.6-.4-1-1-1-1.7v-97.3c0-10.4-5.5-20.3-14.5-25.7l-122.1-73.8c-4.7-2.8-10-4.3-15.5-4.3h0Z"/>
  <g>
    <path class="cls-2" d="M239.5,731.7h-18.6l-46.5-58.1v58.1h-14.5v-111.1h14.5v51.4l44.6-51.4h16.6l-44.4,51.2,48.3,59.9Z"/>
    <path class="cls-2" d="M287.1,734.3c-7.5,0-13.8-.9-19-2.8-5.2-1.9-9.4-4.7-12.7-8.5s-5.7-8.6-7.2-14.3c-1.5-5.7-2.2-12.5-2.2-20.3v-67.6h14.5v65.9c0,6.5.4,12,1.3,16.4.9,4.4,2.4,8,4.4,10.7,2.1,2.7,4.8,4.6,8.2,5.8,3.4,1.2,7.6,1.7,12.6,1.7s9.3-.6,12.6-1.7c3.4-1.2,6.1-3.1,8.2-5.8,2.1-2.7,3.6-6.2,4.5-10.7.9-4.4,1.3-9.9,1.3-16.4v-65.9h14.5v67.6c0,7.8-.7,14.6-2.2,20.3-1.5,5.7-3.9,10.5-7.2,14.3-3.3,3.8-7.6,6.6-12.8,8.5-5.2,1.9-11.6,2.8-19,2.8Z"/>
    <path class="cls-2" d="M363.2,731.7h-14.5v-111.1h14.5v111.1Z"/>
    <path class="cls-2" d="M421.4,620.7c8.1,0,15.3,1.4,21.6,4.1,6.3,2.7,11.5,6.6,15.7,11.5,4.2,4.9,7.4,10.7,9.6,17.5,2.2,6.8,3.2,14.3,3.2,22.5s-1.1,15.9-3.2,22.8c-2.2,6.8-5.3,12.7-9.6,17.5-4.2,4.8-9.5,8.6-15.7,11.2-6.3,2.6-13.5,4-21.6,4h-37v-111.1h37ZM421.4,718.6c11.5,0,20.1-3.8,25.8-11.4,5.7-7.6,8.5-18,8.5-31.1s-2.9-23.5-8.6-31c-5.7-7.5-14.3-11.3-25.7-11.3h-22.4v84.8h22.4Z"/>
  </g>
  <g>
    <polygon class="cls-6" points="211.4 391.3 211.4 507.2 311.8 449.3 311.8 333.3 211.4 391.3"/>
    <path class="cls-5" d="M111,333.3v106.7c0,5.7,3,11,8,13.9l92.4,53.4v-115.9l-100.4-58Z"/>
  </g>
  <polygon class="cls-5" points="311.8 333.3 311.8 449.3 412.3 507.2 412.3 391.3 311.8 333.3"/>
  <polygon class="cls-5" points="211.4 159.4 211.4 275.4 311.8 333.3 311.8 217.4 211.4 159.4"/>
  <g>
    <rect class="cls-3" x="409.8" y="382.2" width="36.5" height="0" transform="translate(-144.9 414.6) rotate(-45)"/>
    <polygon class="cls-3" points="512.7 333.3 412.3 275.4 380.9 293.5 480.7 351.8 512.7 333.3"/>
    <polygon class="cls-4" points="344 314.7 344 314.7 311.8 333.3 412.3 391.3 412.3 391.3 311.8 333.3 344 314.7"/>
    <polygon class="cls-4" points="344 314.7 311.8 333.3 412.3 391.3 443.8 373.1 344 314.7"/>
    <rect class="cls-7" x="342.6" y="309.5" width="20.8" height="0"/>
    <polygon class="cls-7" points="380.9 293.5 362 304.3 344 314.7 443.8 373.1 480.7 351.8 380.9 293.5"/>
  </g>
  <g>
    <path class="cls-4" d="M412.3,159.4l-92.4-53.4c-5-2.9-11-2.9-16,0l-23.7,13.7,99.8,58.3,32.3-18.6Z"/>
    <g>
      <polygon class="cls-1" points="261.6 130.4 261.6 130.4 266.5 127.6 261.6 130.4"/>
      <polygon class="cls-7" points="360.8 189.1 343.1 199.4 343.1 199.4 360.8 189.1"/>
    </g>
    <g>
      <path class="cls-3" d="M412.3,159.4l-92.4-53.4c-5-2.9-11-2.9-16,0l-23.7,13.7,99.8,58.3,32.3-18.6Z"/>
      <polygon class="cls-4" points="211.4 159.4 311.8 217.4 343.1 199.4 243.3 141 211.4 159.4"/>
      <rect class="cls-7" x="371" y="172.9" height="20.7"/>
      <polygon class="cls-7" points="360.8 189.1 362 188.4 362 188.4 360.8 189.1"/>
    </g>
    <polygon class="cls-6" points="380 178.1 412.3 159.4 380 178.1 380 178.1"/>
    <rect class="cls-6" x="371" y="172.9" height="20.7"/>
  </g>
  <polygon class="cls-7" points="280.2 119.8 266.5 127.6 261.6 130.4 243.3 141 343.1 199.4 360.8 189.1 362 188.4 380 178.1 280.2 119.8"/>
  <g>
    <polygon class="cls-4" points="143.6 314.5 143.6 314.5 111 333.3 211.4 391.3 242.9 373.1 143.1 314.8 143.6 314.5"/>
    <polygon class="cls-3" points="311.8 333.3 284.9 317.8 211.4 275.4 201.5 281.1 180.5 293.2 161.2 304.3 161.2 304.3 180 293.5 279.8 351.8 280.3 351.6 311.8 333.3"/>
    <polygon class="cls-3" points="261.6 362.3 266.4 359.5 261.6 362.3 261.6 362.3"/>
    <polygon class="cls-7" points="279.8 351.8 279.8 351.8 266.4 359.5 279.8 351.8"/>
    <polygon class="cls-7" points="180 293.5 161.2 304.3 143.6 314.5 143.1 314.8 242.9 373.1 261.6 362.3 266.4 359.5 279.8 351.8 180 293.5"/>
  </g>
  <polygon class="cls-6" points="380 178.1 362 188.4 343.1 199.4 311.8 217.4 311.8 333.3 412.3 275.4 412.3 159.4 380 178.1"/>
  <path class="cls-6" d="M412.3,391.3v115.9l92.4-53.4c5-2.9,8-8.1,8-13.9v-106.7l-100.4,58Z"/>
</svg>